PathFileType	4	(X/Y/Z)	outputs\static_markers.trc
DataRate	CameraRate	NumFrames	NumMarkers	Units	OrigDataRate	OrigDataStartFrame	OrigNumFrames
360.000000	360.000000	4	48	m	360.000000	5	11
Frame#	Time	C7			CLAV			LANK			LASI			LBAK			LBHD			LELB			LFHD			LFIN			LFRM			LHEE			LIC			LKNE			LMANK			LMELB			LMKNE			LPSI			LSHO			LTHI			LTIB			LTOE			LUPA			LWRA			LWRB			RANK			RASI			RBAK			RBHD			RELB			RFHD			RFIN			RFRM			RHEE			RIC			RKNE			RMANK			RMELB			RMKNE			RPSI			RSHO			RTHI			RTIB			RTOE			RUPA			RWRA			RWRB			STRN			T10			
		X1	Y1	Z1	X2	Y2	Z2	X3	Y3	Z3	X4	Y4	Z4	X5	Y5	Z5	X6	Y6	Z6	X7	Y7	Z7	X8	Y8	Z8	X9	Y9	Z9	X10	Y10	Z10	X11	Y11	Z11	X12	Y12	Z12	X13	Y13	Z13	X14	Y14	Z14	X15	Y15	Z15	X16	Y16	Z16	X17	Y17	Z17	X18	Y18	Z18	X19	Y19	Z19	X20	Y20	Z20	X21	Y21	Z21	X22	Y22	Z22	X23	Y23	Z23	X24	Y24	Z24	X25	Y25	Z25	X26	Y26	Z26	X27	Y27	Z27	X28	Y28	Z28	X29	Y29	Z29	X30	Y30	Z30	X31	Y31	Z31	X32	Y32	Z32	X33	Y33	Z33	X34	Y34	Z34	X35	Y35	Z35	X36	Y36	Z36	X37	Y37	Z37	X38	Y38	Z38	X39	Y39	Z39	X40	Y40	Z40	X41	Y41	Z41	X42	Y42	Z42	X43	Y43	Z43	X44	Y44	Z44	X45	Y45	Z45	X46	Y46	Z46	X47	Y47	Z47	X48	Y48	Z48	

6	0.01388888888888889	-0.0429387167096138	1.697090625762939	0.2706155478954315	0.122505322098732	1.66192090511322	0.2691095173358917	0.02070691622793674	0.08557534217834473	0.05479485914111137	0.1570921838283539	1.164641618728638	0.1158095300197601	-0.08140428364276886	1.474383592605591	0.1716373264789581	0.02910594642162323	1.895879507064819	0.2036319971084595	-0.04772114008665085	1.628829956054688	-0.2279885411262512	0.1696844398975372	1.905113935470581	0.1815937906503677	0.00464667659252882	1.731920123100281	-0.6059998273849487	-0.0266668014228344	1.686692833900452	-0.3708936870098114	-0.05237788334488869	0.09903578460216522	0.1161305010318756	0.06929846107959747	1.234631180763245	0.06928164511919022	0.05530909448862076	0.6038616895675659	0.07194056361913681	0.04512376338243484	0.08751306682825089	0.1683715581893921	0.008383000269532204	1.571948289871216	-0.2276127934455872	0.05225352197885513	0.5725456476211548	0.2003588676452637	-0.04589290171861649	1.193514466285706	0.1962385326623917	-0.02651716396212578	1.714890599250793	0.1137108355760574	0.05205660313367844	0.7054180502891541	0.05750877410173416	0.01270929723978043	0.4927832782268524	0.04755160585045815	0.1999616622924805	0.07053676247596741	0.1239548623561859	-0.04343674331903458	1.683738946914673	-0.05934887379407883	0.04325173795223236	1.672405481338501	-0.515310525894165	-0.04177889972925186	1.647264957427979	-0.5212751030921936	-0.02683498710393906	0.08708637952804565	0.4435557126998901	0.14338019490242	1.168343067169189	0.4065132141113281	-0.08347803354263306	1.474007487297058	0.3612464666366577	0.04869279637932777	1.894771933555603	0.3513011038303375	0.0001355356071144342	1.624782562255859	0.7639943361282349	0.1903706341981888	1.899642467498779	0.3379188776016235	0.09681145846843719	1.745292186737061	1.102267503738403	0.03164864704012871	1.705673456192017	0.8914161324501038	-0.06812819838523865	0.09598622471094131	0.373146116733551	0.05263175070285797	1.224424362182617	0.4383785128593445	0.04521233588457108	0.6011036038398743	0.4514580368995667	0.01080222986638546	0.08491355180740356	0.3434165418148041	0.06724405288696289	1.580071926116943	0.76253741979599	0.06988039612770081	0.592371940612793	0.3221362233161926	-0.04358311742544174	1.201002597808838	0.3040748834609985	-0.009656475856900215	1.711331486701965	0.424136608839035	0.03798484429717064	0.7835566997528076	0.4738383293151855	-0.03362012654542923	0.4710626602172852	0.4640831351280212	0.198601245880127	0.06447965651750565	0.4358360171318054	-0.01555736735463142	1.680389642715454	0.5924558639526367	0.1169380098581314	1.724287033081055	1.026331901550293	0.03302330896258354	1.696207046508789	1.036953091621399	0.1823015511035919	1.46600604057312	0.2571969032287598	-0.04902049154043198	1.316585302352905	0.2492076903581619	
7	0.01666666666666667	-0.04289497062563896	1.697119355201721	0.2706888616085052	0.1225441843271255	1.661882400512695	0.2691459357738495	0.02069345116615295	0.08556738495826721	0.05477732047438622	0.1571136713027954	1.164639234542847	0.1158206462860107	-0.08136815577745438	1.474420070648193	0.171688511967659	0.02879419922828674	1.895900249481201	0.2041621059179306	-0.04778214544057846	1.628839373588562	-0.2279650717973709	0.1691707968711853	1.905300140380859	0.1812916398048401	0.004677550867199898	1.731852769851685	-0.6059229969978333	-0.0266342218965292	1.686673998832703	-0.3708331882953644	-0.05236238986253738	0.09903690218925476	0.1161348298192024	0.06931579113006592	1.234638690948486	0.06929475069046021	0.05533529818058014	0.6038726568222046	0.07192555069923401	0.04512939974665642	0.08751793205738068	0.1683668345212936	0.008397267200052738	1.571929693222046	-0.2275394946336746	0.0522548072040081	0.5725558996200562	0.2003710865974426	-0.04585662856698036	1.193511605262756	0.1962482035160065	-0.02637581899762154	1.714839816093445	0.1137867122888565	0.05208680033683777	0.7054152488708496	0.05750568211078644	0.01273505948483944	0.4927820861339569	0.04754814505577087	0.1999621093273163	0.07054349780082703	0.1239567473530769	-0.04338747262954712	1.683752179145813	-0.05927144736051559	0.04327618330717087	1.672363996505737	-0.5152497887611389	-0.04175030440092087	1.647238731384277	-0.5212279558181763	-0.02683589234948158	0.08708590269088745	0.4435499608516693	0.143385261297226	1.168327212333679	0.4065267443656921	-0.08347320556640625	1.474003553390503	0.3612682223320007	0.04921327903866768	1.894579172134399	0.3516408205032349	0.0001636255910852924	1.624717473983765	0.7640526294708252	0.1907831579446793	1.899516463279724	0.3375533819198608	0.09684284031391144	1.745190858840942	1.102313280105591	0.03164122998714447	1.70553719997406	0.8915114402770996	-0.06813310086727142	0.09597434848546982	0.373151570558548	0.05265245586633682	1.224408388137817	0.4383861422538757	0.04522347450256348	0.6011025905609131	0.4514664709568024	0.01079563610255718	0.08491720259189606	0.3434147238731384	0.06726992130279541	1.58000373840332	0.7625892162322998	0.06988828629255295	0.592369019985199	0.3221337795257568	-0.04358036816120148	1.201002597808838	0.304095059633255	-0.009616400115191936	1.711304664611816	0.4242026209831238	0.03798732906579971	0.7835474014282227	0.473847359418869	-0.03361561521887779	0.4710571467876434	0.4640805721282959	0.198587492108345	0.06448933482170105	0.4358476400375366	-0.01550355367362499	1.680330276489258	0.5924931764602661	0.116967037320137	1.724178433418274	1.026407957077026	0.03304218128323555	1.696100473403931	1.036990165710449	0.1822007447481155	1.465925216674805	0.2573525905609131	-0.04900220409035683	1.316587209701538	0.2492283880710602	
8	0.01944444444444444	-0.04285435378551483	1.69713306427002	0.2707562446594238	0.1225711405277252	1.661865472793579	0.2691704928874969	0.02069067023694515	0.08558421581983566	0.05481055378913879	0.1571293622255325	1.164646506309509	0.1158318072557449	-0.0813819095492363	1.474443078041077	0.1717233657836914	0.02856018394231796	1.895933866500854	0.2046441435813904	-0.04763303324580193	1.628811955451965	-0.2278554141521454	0.1687275320291519	1.905426979064941	0.1810435503721237	0.004713571164757013	1.731804013252258	-0.6058522462844849	-0.02662261575460434	1.686652421951294	-0.3707740902900696	-0.05236982554197311	0.09902166575193405	0.1161382794380188	0.06932859867811203	1.234653472900391	0.06930810213088989	0.05535459518432617	0.6038811206817627	0.07192385941743851	0.04514572769403458	0.08752231299877167	0.1683670431375504	0.008417095057666302	1.57192850112915	-0.2274575531482697	0.05228219926357269	0.5725599527359009	0.200371652841568	-0.04584136605262756	1.193517446517944	0.1962621212005615	-0.02632015570998192	1.714818477630615	0.1138645932078362	0.05209475755691528	0.7054195404052734	0.05751284956932068	0.01275025308132172	0.4927825033664703	0.04755641147494316	0.1999806612730026	0.07052768766880035	0.1239633932709694	-0.04337327182292938	1.683761954307556	-0.05920245125889778	0.04329949617385864	1.672330617904663	-0.5152002573013306	-0.0417434498667717	1.647200345993042	-0.5211657881736755	-0.02683701366186142	0.08708470314741135	0.4435518980026245	0.143408864736557	1.168326854705811	0.4065570533275604	-0.08346214145421982	1.47400426864624	0.3612965941429138	0.0496256910264492	1.894440531730652	0.3520836532115936	0.0001829587563406676	1.624661803245544	0.7640909552574158	0.1911925971508026	1.899373054504395	0.3371961414813995	0.09687637537717819	1.74511456489563	1.102352857589722	0.03164928779006004	1.705438733100891	0.891557514667511	-0.06811998039484024	0.09597006440162659	0.3731553256511688	0.05266737192869186	1.224387884140015	0.4384057223796844	0.04524311795830727	0.6010899543762207	0.4514546990394592	0.01080706343054771	0.08492074906826019	0.3434006869792938	0.06728570908308029	1.579941630363464	0.7626408338546753	0.0698777362704277	0.5923671722412109	0.3221157789230347	-0.04356656223535538	1.20100724697113	0.3040958940982819	-0.009581943042576313	1.711268186569214	0.4242492616176605	0.03799297660589218	0.783552348613739	0.4738457798957825	-0.03361508250236511	0.4710593223571777	0.4640762209892273	0.1985874474048615	0.06450062245130539	0.4358510076999664	-0.01542970910668373	1.680298566818237	0.5925329923629761	0.1170018166303635	1.724092602729797	1.026467084884644	0.03310556337237358	1.695995092391968	1.037045478820801	0.1821639537811279	1.46587598323822	0.2574242949485779	-0.04898707568645477	1.316586017608643	0.2492448389530182	
9	0.02222222222222222	-0.04279789328575134	1.697144269943237	0.2708284854888916	0.1226490139961243	1.66184675693512	0.2692028284072876	0.02071385271847248	0.08557096123695374	0.05482948198914528	0.1571334153413773	1.164658188819885	0.1158464401960373	-0.08139795809984207	1.474457859992981	0.1717598885297775	0.02833915315568447	1.89600396156311	0.2050904631614685	-0.04758875817060471	1.628799200057983	-0.2277821898460388	0.1683546453714371	1.905514121055603	0.1808420121669769	0.004754032474011183	1.731759905815125	-0.6057818531990051	-0.02659949846565723	1.686632633209229	-0.3707129657268524	-0.0523587092757225	0.09903393685817719	0.1161361336708069	0.06935470551252365	1.234662055969238	0.06931998580694199	0.05535377934575081	0.603892982006073	0.07193257659673691	0.04514927789568901	0.08751942217350006	0.1683661192655563	0.008474795147776604	1.571907520294189	-0.2273815274238586	0.0522802397608757	0.5725581645965576	0.2003778964281082	-0.04582863301038742	1.193525671958923	0.1962798684835434	-0.02625285089015961	1.714804649353027	0.1139652729034424	0.0521119087934494	0.7054275870323181	0.05751974135637283	0.01274752803146839	0.4927965700626373	0.04754525795578957	0.1999808847904205	0.07053388655185699	0.1239447891712189	-0.04335015267133713	1.683766484260559	-0.05913747847080231	0.04333892837166786	1.672281742095947	-0.5151745080947876	-0.04171691089868546	1.647173166275024	-0.5211006999015808	-0.02683477662503719	0.08707788586616516	0.4435472190380096	0.1434028744697571	1.168312907218933	0.4065778851509094	-0.08347362279891968	1.474005341529846	0.3613307178020477	0.05005709454417229	1.894242644309998	0.3524852395057678	0.0002021933323703706	1.624602437019348	0.7641347646713257	0.1916525214910507	1.899203300476074	0.3367222845554352	0.0969061404466629	1.745034575462341	1.10241711139679	0.03166764229536057	1.70535147190094	0.8915967345237732	-0.06812202930450439	0.09596540778875351	0.3731449544429779	0.05266325175762177	1.224372863769531	0.438424289226532	0.04522025212645531	0.6010963916778564	0.4514614939689636	0.01081075798720121	0.084925577044487	0.3434003889560699	0.06730004400014877	1.579866290092468	0.7626815438270569	0.06990507990121841	0.5923653244972229	0.3221466243267059	-0.04354230687022209	1.200998067855835	0.3041118383407593	-0.009555614553391933	1.711238145828247	0.4243114590644836	0.0379859060049057	0.7835516929626465	0.4738431572914124	-0.0335959829390049	0.4710630476474762	0.4640825688838959	0.1986046582460403	0.06448054313659668	0.4358408451080322	-0.01538039185106754	1.680264353752136	0.5925835371017456	0.1170473396778107	1.724021196365356	1.026526570320129	0.03314600884914398	1.695908427238464	1.03711462020874	0.1821649372577667	1.465837001800537	0.2574302852153778	-0.04897654056549072	1.316595315933228	0.2492649704217911	
